<?xml version="1.0" standalone="no"?>
<!DOCTYPE svg PUBLIC "-//W3C//DTD SVG 20010904//EN"
 "http://www.w3.org/TR/2001/REC-SVG-20010904/DTD/svg10.dtd">
<svg version="1.0" xmlns="http://www.w3.org/2000/svg"
 width="700.000000pt" height="700.000000pt" viewBox="0 0 700.000000 700.000000"
 preserveAspectRatio="xMidYMid meet">
<metadata>
Created by potrace 1.14, written by Peter Selinger 2001-2017
</metadata>
<g transform="translate(0.000000,700.000000) scale(0.100000,-0.100000)"
fill="#000000" stroke="none">
<path d="M2000 6082 c-37 -3 -192 -28 -225 -36 -83 -19 -122 -29 -135 -33 -8
-3 -22 -7 -31 -9 -101 -20 -424 -179 -539 -264 -178 -133 -207 -157 -323 -275
-173 -176 -306 -362 -412 -575 -20 -41 -41 -83 -47 -94 -18 -35 -80 -200 -105
-281 -28 -93 -28 -92 -39 -170 -4 -33 -8 -62 -9 -65 0 -3 -5 -32 -9 -65 -9
-75 -16 -123 -21 -154 -2 -13 -7 -45 -11 -70 -10 -76 -14 -105 -19 -131 -2
-14 -7 -47 -10 -75 -3 -27 -8 -63 -10 -80 -3 -16 -7 -47 -10 -67 -7 -52 -20
-145 -35 -248 -5 -36 -10 -394 -10 -802 l0 -738 38 -83 c142 -305 418 -583
722 -724 177 -83 357 -132 460 -127 108 5 249 58 350 131 87 64 171 169 365
459 110 164 203 303 208 309 4 5 33 47 65 91 74 106 153 190 248 264 62 49
198 117 284 141 104 30 154 32 795 32 527 0 619 -3 678 -17 205 -49 375 -156
523 -331 41 -47 190 -259 249 -353 6 -8 22 -34 38 -56 15 -23 71 -106 124
-186 53 -80 103 -151 110 -158 7 -7 13 -17 13 -22 0 -18 144 -153 208 -194 84
-55 154 -83 247 -101 80 -16 124 -14 215 10 159 40 337 118 463 203 38 26 82
55 96 64 14 10 66 54 115 100 142 131 254 282 342 461 l44 90 0 726 c0 674 -2
735 -20 856 -11 72 -22 144 -24 160 -21 144 -28 193 -32 215 -2 14 -7 45 -10
70 -3 25 -8 54 -10 65 -2 11 -6 40 -9 65 -3 25 -8 56 -10 70 -3 14 -7 43 -11
65 -40 284 -58 356 -129 540 -177 459 -503 855 -916 1112 -159 99 -389 198
-545 233 -27 7 -58 14 -69 16 -11 3 -45 9 -75 14 -30 5 -71 12 -90 16 -34 7
-2980 13 -3050 6z"/>
</g>
</svg>
